<svg xmlns="http://www.w3.org/2000/svg" xmlns:xlink="http://www.w3.org/1999/xlink" width="1024" height="1024" viewBox="0 0 1024 1024">
  <defs>
    <clipPath id="clip-Custom_Size_1">
      <rect width="1024" height="1024"/>
    </clipPath>
  </defs>
  <g id="Custom_Size_1" data-name="Custom Size – 1" clip-path="url(#clip-Custom_Size_1)">
    <path id="Subtraction_1" data-name="Subtraction 1" d="M512,896a690.673,690.673,0,0,1-93.038-6.352,683.075,683.075,0,0,1-91.344-18.854,621.713,621.713,0,0,1-86.349-31.055,528.085,528.085,0,0,1-78.053-42.955c-12.19-8.171-23.926-16.867-34.883-25.846a409.261,409.261,0,0,1-31.571-28.707A370.235,370.235,0,0,1,68.915,710.7a339.8,339.8,0,0,1-23.709-34.318C15.21,626.582,0,571.276,0,512a690.674,690.674,0,0,1,6.352-93.038,683.08,683.08,0,0,1,18.854-91.344,621.691,621.691,0,0,1,31.055-86.349,528.059,528.059,0,0,1,42.955-78.053c8.171-12.189,16.867-23.926,25.845-34.883a409.273,409.273,0,0,1,28.707-31.571A370.231,370.231,0,0,1,185.3,68.915a339.792,339.792,0,0,1,34.318-23.709C269.419,15.21,324.725,0,384,0a690.672,690.672,0,0,1,93.038,6.352,683.069,683.069,0,0,1,91.344,18.854,621.711,621.711,0,0,1,86.349,31.055,528.062,528.062,0,0,1,78.053,42.955c12.189,8.17,23.925,16.866,34.884,25.845a409.318,409.318,0,0,1,31.571,28.707A370.234,370.234,0,0,1,827.085,185.3a339.789,339.789,0,0,1,23.709,34.318C880.791,269.419,896,324.725,896,384a690.671,690.671,0,0,1-6.352,93.038,683.063,683.063,0,0,1-18.854,91.344,621.726,621.726,0,0,1-31.055,86.349,528.088,528.088,0,0,1-42.955,78.053c-8.171,12.189-16.866,23.925-25.846,34.884a409.248,409.248,0,0,1-28.707,31.571A370.238,370.238,0,0,1,710.7,827.085a339.8,339.8,0,0,1-34.318,23.709C626.582,880.791,571.276,896,512,896ZM369.371,128.615c-126.382,0-225.612,43.806-267.889,87.221a76.089,76.089,0,0,0-13.827,19.379,73.711,73.711,0,0,0-6.83,22.4,93.3,93.3,0,0,0,.1,25.252A138.864,138.864,0,0,0,87.9,310.8a217.108,217.108,0,0,0,13.777,30.452,334.868,334.868,0,0,0,20.518,32.8c7.94,11.284,17.09,23.053,27.2,34.98,10.16,11.992,21.535,24.438,33.809,36.992-9.237,14.593-17.545,28.979-24.692,42.76-59.683,115.07-73.16,151.51,10.668,224.894,86.153,75.42,232.6,81.282,275.427,81.282,3.44,0,6.882-.033,10.229-.1,82.48-1.612,166-6.854,218.227-34.061,57.555-29.984,110.28-78.36,137.6-126.25,19.525-34.227,41.727-89.1,36.612-156.134-6.876-90.111-60.752-172.666-160.131-245.37C569.151,146.734,449.211,128.615,369.371,128.615ZM444.6,762.964c-40.009,0-176.593-5.29-254.349-73.358-66.13-57.893-61.273-74.387-3.339-186.083,5.766-11.118,12.377-22.726,19.649-34.5,18.148,17.186,37.82,34.348,56.891,49.629,19.215,15.4,37.4,28.547,52.6,38.03,10.234,6.387,21.647,12.954,33.921,19.519,11.854,6.34,24.6,12.725,37.877,18.977,25.707,12.1,53.63,23.786,80.752,33.786,13.474,4.968,26.744,9.524,39.441,13.539,12.871,4.071,25.161,7.589,36.528,10.457,11.663,2.943,22.4,5.21,31.9,6.74a164.962,164.962,0,0,0,25.552,2.387c31.247-.1,71.046-14.493,89.521-46.44a117.128,117.128,0,0,0,11.441-27.107,127.691,127.691,0,0,0,4.413-26.012c1.158-16.74-.7-32.137-2.2-44.508-5.565-46.084-42.527-127-100.066-186.2-54.563-56.137-130.162-93.208-192.6-94.441l-1.012-.01c-12.9,0-28.529,5.192-46.447,15.431-16.687,9.536-35.088,23.274-54.691,40.832-9.316,8.344-18.9,17.556-28.475,27.382-9.388,9.63-18.87,19.946-28.182,30.661-9.206,10.593-18.325,21.668-27.1,32.916-8.764,11.229-17.256,22.718-25.241,34.147-12.9-13.554-24.846-27.142-35.493-40.388-14.222-17.693-25.839-34.434-34.527-49.757A193.825,193.825,0,0,1,119.084,303.1a105.418,105.418,0,0,1-6.484-24.341,56.571,56.571,0,0,1,1.158-22.034,42.479,42.479,0,0,1,4.023-9.789,43.186,43.186,0,0,1,6.627-8.776c36.37-37.348,128.541-77.546,244.964-77.546,75.071,0,187.86,17.048,298.872,98.263C871.942,407.9,816.257,560.156,782.861,618.7c-24.443,42.847-72.183,86.425-124.59,113.727-52.767,27.49-154.956,29.487-204.066,30.446C451.09,762.933,447.858,762.964,444.6,762.964ZM601.7,630.086c-52.29,0-190.413-51.686-268.713-100.552-13.047-8.142-29.708-20.133-46.915-33.763-9.886-7.831-19.907-16.162-29.785-24.762-10.869-9.463-21.619-19.3-31.95-29.24a758.35,758.35,0,0,1,53.3-68.87c8.9-10.222,18.009-20.1,27.069-29.358,8.813-9.006,17.651-17.5,26.27-25.245,8.463-7.606,16.761-14.532,24.663-20.586a252.041,252.041,0,0,1,22.247-15.381,121.47,121.47,0,0,1,19.022-9.629c5.765-2.21,10.808-3.331,14.988-3.331,54.446,1.075,121.286,34.341,170.281,84.75a352.333,352.333,0,0,1,34.96,42.416,404.205,404.205,0,0,1,27.825,45.594,338.2,338.2,0,0,1,19.271,43.75c2.412,6.837,4.426,13.436,5.984,19.613a140.066,140.066,0,0,1,3.313,17.269c2.678,22.147,6.012,49.71-9.695,76.863a48.532,48.532,0,0,1-11.434,13.149,70.491,70.491,0,0,1-15.6,9.522,88.7,88.7,0,0,1-17.617,5.8A83.442,83.442,0,0,1,601.7,630.086Z" transform="translate(64 64)" fill="#7c3ea3"/>
  </g>
</svg>
